<?xml version="1.0" encoding="UTF-8"?>
<svg id="Layer_2" data-name="Layer 2" xmlns="http://www.w3.org/2000/svg" viewBox="0 0 2177.29 460.12">
  <defs>
    <style>
      .cls-1 {
        fill: #fff;
      }
    </style>
  </defs>
  <g id="Layer_1-2" data-name="Layer 1">
    <g>
      <path class="cls-1" d="M1352.85,179.24c-5.77,5.9-10.94,12.1-15.49,18.61v-63.58c0-20.25,21.94-32.92,39.48-22.79l49.64,28.66c-28.8,5.38-53.35,18.42-73.63,39.11Z"/>
      <path class="cls-1" d="M1353.43,389.07c19.95,19.95,44.59,32.73,73.89,38.36l-50.47,29.14c-17.54,10.12-39.48-2.54-39.48-22.79v-63.71c4.7,6.68,10.05,13.02,16.06,19.01Z"/>
      <path class="cls-1" d="M1410.66,216.49c12.59-9.81,28.53-14.73,47.8-14.73,16.3,0,30.85,4.65,43.63,13.9,11.62,8.41,19.62,20.78,24.06,37.14.7,2.56-1.27,5.09-3.93,5.09h-131.33c-2.69,0-4.65-2.56-3.91-5.14,4.43-15.32,12.32-27.4,23.68-36.25Z"/>
      <path class="cls-1" d="M1636.2,306.8l-81.36,46.97-24.45-14.11c-1.68-.98-3.84-.63-5.09.87-14.01,16.8-34.08,25.19-60.17,25.19-40.38,0-65.96-15.64-76.73-46.93-.89-2.6,1.09-5.33,3.85-5.33h200.63c1.97,0,3.69-1.42,4-3.37,1.46-9.13,2.19-17.81,2.19-26.07,0-17.2-2.29-33.28-6.84-48.18l43.96,25.39c17.55,10.12,17.55,35.46,0,45.58Z"/>
      <g>
        <path class="cls-1" d="M276.77,0h48.61c2.55,0,4.61,2.06,4.61,4.61v430.77c0,2.55-2.06,4.61-4.61,4.61h-48.61c-2.55,0-4.61-2.06-4.61-4.61v-188.78c0-2.55-2.06-4.61-4.61-4.61H63.06c-2.55,0-4.61,2.06-4.61,4.61v188.78c0,2.55-2.06,4.61-4.61,4.61H4.61c-2.55,0-4.61-2.06-4.61-4.61V4.61C0,2.06,2.06,0,4.61,0h49.24c2.55,0,4.61,2.06,4.61,4.61v177.46c0,2.55,2.06,4.61,4.61,4.61h204.49c2.55,0,4.61-2.06,4.61-4.61V4.61c0-2.55,2.06-4.61,4.61-4.61Z"/>
        <path class="cls-1" d="M428.88,0h49.24c2.55,0,4.61,2.06,4.61,4.61v430.77c0,2.55-2.06,4.61-4.61,4.61h-49.24c-2.55,0-4.61-2.06-4.61-4.61V4.61c0-2.55,2.06-4.61,4.61-4.61Z"/>
        <path class="cls-1" d="M690.96,436.93L537.09,6.16c-1.07-3,1.15-6.16,4.34-6.16h53.04c1.96,0,3.71,1.24,4.35,3.09l122.26,351.23c1.44,4.13,7.28,4.12,8.71,0L851.24,3.1c.64-1.86,2.39-3.1,4.36-3.1h53.65c3.19,0,5.42,3.16,4.34,6.16l-154.45,430.77c-.66,1.83-2.39,3.05-4.34,3.05h-59.5c-1.95,0-3.69-1.22-4.34-3.06Z"/>
        <path class="cls-1" d="M1132.01,116.91c34.35,0,62.75,11.53,85.17,34.57,22.41,23.05,33.63,54.9,33.63,95.54v188.36c0,2.55-2.06,4.61-4.61,4.61h-71.87c-2.55,0-4.61-2.06-4.61-4.61v-178.3c0-20.95-5.66-36.98-16.97-48.08-11.31-11.1-26.4-16.66-45.26-16.66-20.96,0-37.71,6.5-50.28,19.49-12.57,12.99-18.86,32.48-18.86,58.46v165.1c0,2.55-2.06,4.61-4.61,4.61h-71.87c-2.55,0-4.61-2.06-4.61-4.61V130.32c0-2.55,2.06-4.61,4.61-4.61h71.87c2.55,0,4.61,2.06,4.61,4.61v17.1c0,4.25,5.25,6.22,8.06,3.03,19.75-22.35,48.28-33.54,85.6-33.54Z"/>
        <path class="cls-1" d="M1948.33,439.99h-82.32c-1.49,0-2.88-.72-3.75-1.93l-63.07-88.1c-1.84-2.57-5.66-2.57-7.5,0l-63.07,88.09c-.87,1.21-2.26,1.93-3.75,1.93h-82.3c-3.75,0-5.93-4.25-3.74-7.3l108.03-150.45c1.15-1.6,1.15-3.77,0-5.37l-103.02-143.87c-2.18-3.05,0-7.29,3.75-7.29h82.32c1.49,0,2.88.72,3.75,1.93l58.27,81.39c1.84,2.57,5.65,2.57,7.49,0l58.45-81.4c.87-1.21,2.26-1.92,3.74-1.92h81.69c3.75,0,5.93,4.24,3.75,7.29l-102.85,143.66c-1.15,1.6-1.15,3.76,0,5.37l107.88,150.67c2.18,3.05,0,7.29-3.75,7.29Z"/>
        <path class="cls-1" d="M2172.68,203.65h-61.81c-2.55,0-4.61,2.06-4.61,4.61v126.13c0,10.9,2.72,18.86,8.17,23.88,5.44,5.03,13.41,7.86,23.88,8.48,9.36.56,20.75.54,34.15-.07,2.62-.12,4.82,1.98,4.82,4.6v64.56c0,2.36-1.78,4.34-4.13,4.59-53.55,5.57-91.46.18-113.73-16.16-22.85-16.75-34.26-46.72-34.26-89.88v-126.13c0-2.55-2.06-4.61-4.61-4.61h-45.46c-2.55,0-4.61-2.06-4.61-4.61v-68.72c0-2.55,2.06-4.61,4.61-4.61h45.46c2.55,0,4.61-2.06,4.61-4.61v-55.45c0-2.03,1.33-3.82,3.28-4.41l71.87-21.73c2.96-.89,5.94,1.32,5.94,4.41v77.18c0,2.55,2.06,4.61,4.61,4.61h61.81c2.55,0,4.61,2.06,4.61,4.61v68.72c0,2.55-2.06,4.61-4.61,4.61Z"/>
      </g>
    </g>
  </g>
</svg>