<?xml version="1.0" encoding="UTF-8"?>
<svg id="Layer_2" data-name="Layer 2" xmlns="http://www.w3.org/2000/svg" viewBox="0 0 279.41 188.2">
  <defs>
    <style>
      .cls-1 {
        fill: #3971b8;
      }

      .cls-2 {
        fill: #231f20;
      }

      .cls-3 {
        fill: #0082c4;
      }

      .cls-4, .cls-5 {
        fill: #fff;
      }

      .cls-5 {
        isolation: isolate;
      }

      .cls-6 {
        fill: #002d56;
      }

      .cls-7 {
        fill: #ef3e33;
      }
    </style>
  </defs>
  <g id="Layer_1-2" data-name="Layer 1">
    <g>
      <g>
        <path class="cls-3" d="M279.41,61.67c0-34.6-26.96-61.67-61.56-61.67s-63.1,28.05-63.1,62.65c0,9.79,2.41,19.15,6.68,27.5l3.9,8.57,16.71,31.21,18.53,30.63,18.53,27.64,16.96-27.32,13.2-23.72,13.66-26.38,9.34-19.28h-.02c4.6-8.94,7.18-19.12,7.18-29.83Z"/>
        <path class="cls-7" d="M194.56,71.91s1.58-3.67,5.4-4.98l.31.42,5.63,7.17.32.37,5.57-8.84,1.61.86-.35,3.42s2.94-4.09,5.03-4.56l6.71,7.9,5.41-8.56s.24-.32.59-.08c.36.23,3.97,1.69,5.22,4.12,0,0,.24.51-.04.87l-18.99,30.31-22.41-28.43Z"/>
        <path class="cls-1" d="M211.25,81.49s-.31-.16.11-.84c.41-.68,3.77-5.91,3.77-5.91,0,0,.41-.47.78,0,.37.47,4.34,5.6,4.34,5.6,0,0,.32.16-.05.89-.36.73-3.61,6.02-3.61,6.02,0,0-.16.73-.74,0-.58-.74-4.61-5.76-4.61-5.76Z"/>
        <path class="cls-7" d="M197.73,96.26l-5.19,1.49s-.71.39-.15-.47c.55-.86,9.26-15,9.26-15,0,0,1.02.16.7.71-.31.55-.94,1.41-.94,1.41,0,0,.16.55.63.51l.87-1.41s1.14.28.63,1.06c-.51.79-.98,1.42-.98,1.42,0,0-.04.39.36.39l.94-1.46s1.02.2.74.87l-1.09,1.49s.08.55.47.47l1.02-1.37s1.03.16.47.87l-.94,1.3s.07.62.59.51l.91-1.37s.98.04.63,1.1l-8.13,12.84-.78-5.34Z"/>
        <path class="cls-7" d="M235.81,94.27l5.31.94s.74.32.1-.48c-.63-.8-10.76-13.96-10.76-13.96,0,0-1.01.27-.63.78.36.51,1.08,1.31,1.08,1.31,0,0-.1.56-.57.57l-1.01-1.31s-1.11.38-.51,1.12c.59.73,1.12,1.3,1.12,1.3,0,0,.08.38-.31.43l-1.09-1.35s-1,.3-.66.93l1.25,1.37s-.02.56-.41.52l-1.16-1.26s-1,.25-.37.91l1.07,1.19s-.01.63-.53.57l-1.04-1.27s-.97.14-.51,1.16l9.41,11.93.23-5.39Z"/>
        <path class="cls-4" d="M171.29,70.8h-5.87v-.9h.81c-.27-.18-.51-.43-.69-.73-.18-.3-.26-.65-.26-1.04,0-.43.1-.79.27-1.06.18-.28.43-.47.76-.59-.68-.46-1.03-1.07-1.03-1.81,0-.58.16-1.03.49-1.35.32-.31.82-.47,1.49-.47h4.03v1h-3.7c-.4,0-.68.03-.85.1-.18.06-.32.18-.43.35-.1.17-.15.37-.15.59,0,.41.13.75.4,1.02.28.27.72.41,1.32.41h3.41v1h-3.82c-.44,0-.77.08-.99.24-.22.16-.33.43-.33.79,0,.28.07.53.21.77.15.23.37.41.66.51.27.1.69.16,1.22.16h3.05v1Z"/>
        <path class="cls-4" d="M171.35,52.58c.51.16.88.35,1.09.56.29.27.48.61.56,1.02.08.41.05.83-.09,1.28-.14.45-.35.76-.63.92-.28.17-.57.2-.88.11-.2-.07-.37-.18-.5-.33-.12-.16-.21-.36-.23-.58-.02-.22,0-.58.09-1.08.15-.88.2-1.56.17-2.03l.42.13ZM174.3,53.36l.35-1.18c-.31.06-.53-.11-.82-.15-.3-.04-.89-.23-1.97-.58l-1.54-.49c-.51-.16-.87-.26-1.08-.28-.33-.03-.64,0-.9.11-.26.11-.53.32-.77.64-.26.32-.47.77-.65,1.35-.19.58-.27,1.13-.25,1.62.01.5.14.92.37,1.24.22.33.56.63,1.01.89l.5-1.09c-.44-.27-.72-.57-.83-.89-.11-.32-.08-.75.1-1.29.19-.58.45-.98.81-1.2.26-.15.63-.16,1.09-.01.05.01.15.05.3.1.02.49-.07,1.21-.25,2.19-.09.47-.14.84-.16,1.08,0,.34.03.66.12.95.09.3.25.57.48.81.22.24.51.41.84.52.57.18,1.1.13,1.6-.16.49-.28.86-.8,1.09-1.55.15-.45.21-.9.18-1.35-.02-.44-.15-.94-.38-1.48.33.07.48.24.76.19Z"/>
        <path class="cls-4" d="M182.49,39.74l-9.52-8.24,1.02-1.16,9.51,8.24-1.01,1.16Z"/>
        <path class="cls-4" d="M182.61,23.91l-1.12-1.54,1.33-.98,1.13,1.54-1.34.98ZM189.45,33.27l-5.77-7.89,1.34-.98,5.77,7.89-1.34.98Z"/>
        <path class="cls-4" d="M195.21,25.89l1.58-.81c.31.64.74,1.06,1.29,1.27.53.22,1.2.19,1.96-.06.77-.25,1.29-.6,1.56-1.03.27-.44.34-.87.2-1.29-.12-.38-.39-.62-.79-.74-.28-.08-.91-.08-1.9,0-1.34.09-2.27.1-2.83.03-.55-.06-1.01-.26-1.4-.59-.37-.32-.64-.72-.8-1.21-.15-.44-.18-.88-.1-1.33.08-.44.25-.85.5-1.21.21-.28.51-.56.91-.84.41-.29.87-.51,1.39-.68.77-.25,1.49-.37,2.16-.34.67.03,1.19.19,1.6.48.4.29.77.74,1.08,1.35l-1.57.77c-.25-.49-.59-.81-1.04-.98-.45-.17-1.01-.15-1.66.06-.77.26-1.28.57-1.52.93-.25.37-.31.72-.2,1.06.08.21.2.39.4.52.2.13.46.21.79.24.19,0,.73-.02,1.62-.07,1.29-.07,2.2-.09,2.74-.04.54.05,1,.22,1.39.52.4.3.69.73.88,1.31.18.56.19,1.14.02,1.74-.16.6-.51,1.14-1.03,1.61-.53.47-1.18.84-1.96,1.1-1.29.42-2.36.47-3.2.16-.85-.31-1.55-.96-2.08-1.95Z"/>
        <g>
          <path class="cls-4" d="M215.39,19.02s0-.51.59-.51.51.46.51.46v4.4l-3.34,3.97s-.47.59-.47.98v12.21s.47,1.89,2.04,2.24c0,0,1.52.39,2.04-.65v.61h3.3v-23.76s.55-4.79-3.81-4.79-4.17,4.83-4.17,4.83v2.87l3.3.98v-.22s0-3.45,0-3.45"/>
          <path class="cls-1" d="M216.54,29.03l.02,11.03s-.96-.33-.96-1.03v-8.63s.19-.89.94-1.37Z"/>
        </g>
        <path class="cls-4" d="M233.99,47.93l.94-.1,15.6-22.82-.31-1.15,4.92,3.35s1.25,1.57.31,3.14c-.94,1.57-13.4,19.58-13.4,19.58,0,0-2.09,1.78-3.77.83-1.68-.94-4.29-2.82-4.29-2.82Z"/>
        <path class="cls-1" d="M238.59,47.71l13.41-19.58s.62.84.41,1.26c-.21.42-12.67,18.53-12.67,18.53,0,0-.42.42-1.15-.21Z"/>
        <path class="cls-4" d="M254.32,53.08l-2.65-1.16s-.62-.16-1.21.31c-.57.47-6.33,4.71-6.49,5.24-.16.52-.53,2.25.73,3.51,1.26,1.26,2.52,1.94,4.03,1.1,1.52-.84,9.32-5.44,10.26-7.49.95-2.04.67-4.44,1.61-5.17.95-.73,5.54-4.09,5.54-4.09,0,0,.53-.31.8,0,.26.32.16.53,0,.68-.15.15-5.29,3.77-5.29,3.77,0,0-.41.31-.05.57.37.26,2.11,1.3,2.11,1.3,0,0,.11.21.68-.16.58-.36,5.23-4.03,5.23-4.03,0,0,1.42-1.67-.68-3.82-2.1-2.15-5.44-.73-5.44-.73,0,0-6.59,4.45-6.91,6.13-.31,1.68-.26,3.56-.95,4.14-.68.58-8.32,6.34-8.32,6.34,0,0-.59.22-.85-.16-.26-.36.32-.78.32-.78l7.53-5.5Z"/>
        <path class="cls-4" d="M248.86,67.07l9.77.23-.03,1.48-1.38-.03c.47.32.85.73,1.13,1.25.27.51.41,1.09.4,1.75-.02.72-.18,1.31-.49,1.77-.31.46-.74.78-1.28.95,1.12.8,1.67,1.82,1.64,3.06-.02.97-.3,1.71-.86,2.21-.54.51-1.38.75-2.49.73l-6.71-.16.04-1.65,6.15.15c.66.01,1.14-.03,1.43-.12.3-.1.54-.3.72-.58.19-.27.29-.6.29-.98.02-.69-.19-1.27-.64-1.73-.44-.46-1.17-.71-2.17-.74l-5.68-.13.03-1.66,6.35.15c.74.02,1.29-.1,1.67-.36.38-.26.57-.7.58-1.31.01-.46-.1-.9-.33-1.3-.24-.4-.59-.7-1.06-.89-.46-.19-1.14-.29-2.03-.31l-5.07-.12.04-1.66Z"/>
        <path class="cls-4" d="M230.84,149.76l1.22.62-.54,1.06-1.23-.61.54-1.06ZM223.39,146l6.29,3.17-.54,1.06-6.28-3.16.54-1.06Z"/>
        <path class="cls-4" d="M254.75,107.25l-12.87-4.37.53-1.58,12.87,4.36-.53,1.58Z"/>
        <path class="cls-4" d="M170.06,42.17l-1.23-.75.65-1.06,1.22.76-.65,1.06ZM179.04,49.56l-.78-.75c.18-.18.31-.33.39-.45.13-.22.16-.42.08-.61-.08-.19-.4-.46-.98-.82l-6.55-4.04.65-1.06,6.58,4.06c.76.48,1.24.9,1.42,1.29.24.5.17,1.04-.19,1.63-.18.29-.39.54-.62.77Z"/>
        <path class="cls-4" d="M249.61,93.29c-.65-.17-1.12-.37-1.42-.62-.37-.32-.63-.73-.77-1.24-.14-.51-.14-1.05.01-1.62.15-.57.39-.97.73-1.21.34-.23.71-.3,1.1-.2.26.06.48.19.65.39.18.19.29.43.34.71.04.28.03.73-.03,1.37-.13,1.11-.15,1.97-.07,2.56l-.54-.14ZM245.85,92.51l-.36,1.51c.39-.1.68.11,1.05.13.38.03,1.14.23,2.51.58l1.98.51c.65.17,1.12.26,1.38.27.43.02.81-.05,1.13-.2.32-.15.63-.44.93-.86.29-.42.54-1.01.72-1.75.19-.75.26-1.43.21-2.06-.07-.62-.25-1.13-.55-1.54-.3-.4-.75-.74-1.34-1.03l-.56,1.4c.57.32.94.67,1.1,1.06.17.4.15.94-.03,1.64-.19.74-.51,1.26-.93,1.56-.32.22-.78.25-1.38.09-.06-.02-.18-.05-.39-.11-.06-.61,0-1.53.17-2.77.08-.6.12-1.06.11-1.37,0-.42-.07-.82-.2-1.19-.13-.37-.35-.69-.66-.99-.3-.28-.66-.48-1.09-.59-.73-.19-1.39-.08-2,.31-.6.39-1.02,1.07-1.27,2.03-.15.58-.19,1.15-.13,1.71.07.55.26,1.16.58,1.83-.41-.06-.62-.26-.96-.19Z"/>
        <path class="cls-4" d="M240.63,117.52c-.61-.26-1.06-.53-1.31-.81-.32-.37-.52-.81-.58-1.34-.07-.52.01-1.05.24-1.6.22-.55.53-.92.89-1.1.37-.18.75-.19,1.12-.03.25.1.44.26.59.48.15.21.22.46.23.74,0,.29-.07.73-.23,1.35-.28,1.09-.42,1.93-.42,2.53l-.53-.22ZM237.02,116.22l-.57,1.44c.39-.05.64.19,1.02.28.38.09,1.1.39,2.41.93l1.88.78c.63.26,1.08.42,1.33.47.43.08.81.06,1.15-.04.34-.11.68-.35,1.04-.72.35-.38.66-.92.96-1.62.3-.72.46-1.39.49-2.02.03-.62-.08-1.15-.32-1.59-.24-.44-.65-.84-1.18-1.21l-.76,1.3c.52.4.84.81.94,1.22.1.41.02.95-.26,1.62-.3.71-.67,1.18-1.15,1.41-.34.17-.81.13-1.38-.1-.05-.02-.17-.08-.36-.16.03-.62.22-1.53.56-2.72.16-.59.26-1.04.31-1.35.05-.41.03-.82-.04-1.2-.08-.39-.25-.74-.51-1.07-.25-.32-.59-.57-.99-.74-.71-.29-1.37-.29-2.03.02-.65.31-1.17.92-1.54,1.83-.24.56-.36,1.11-.38,1.68-.02.56.1,1.2.32,1.9-.41-.12-.58-.36-.93-.32Z"/>
        <path class="cls-4" d="M220.36,157.6c-.44-.27-.73-.53-.89-.78-.2-.32-.29-.68-.27-1.08.02-.4.15-.79.39-1.18.24-.38.52-.61.82-.7.3-.09.58-.05.85.11.17.11.3.25.37.44.08.18.11.37.07.59-.03.22-.15.54-.34.98-.35.78-.57,1.4-.65,1.85l-.36-.23ZM217.81,156.16l-.62,1.01c.3.02.46.23.73.35.27.11.77.43,1.69,1.01l1.31.83c.44.28.75.45.94.53.31.11.6.15.87.11.27-.04.56-.17.87-.4.32-.24.63-.6.94-1.1.32-.5.53-.99.63-1.45.1-.47.1-.88-.03-1.24-.12-.35-.37-.71-.72-1.06l-.74.88c.34.36.53.72.56,1.04.02.32-.12.72-.41,1.18-.32.5-.67.8-1.05.91-.28.09-.63,0-1.03-.25-.04-.03-.12-.08-.26-.17.11-.46.37-1.12.78-1.98.2-.42.33-.74.41-.97.09-.31.13-.61.13-.91-.01-.31-.09-.59-.25-.87-.16-.29-.38-.51-.66-.69-.48-.32-.99-.39-1.52-.24-.52.14-.99.53-1.4,1.17-.25.39-.4.79-.49,1.21-.09.41-.09.91-.01,1.47-.29-.15-.39-.34-.65-.37Z"/>
        <path class="cls-7" d="M196.71,63.07l2.03-2.2s.36-.16.36.05,0,.47-.26.68c-.27.21-2.67,2.72-2.67,2.72,0,0-.16.16-.05.37.11.21.15.21.31.05,0,0,1.62-1.93,1.78-1.99,0,0,.36-.26.47,0,0,0,.11.32-.16.52l-2.83,2.88s-.26.16-.05.37c.2.21.47.05.47.05l1.93-2.04s.16-.37.31-.05c0,0,.26,0-.15.42-.43.42-2.93,3.09-2.93,3.09,0,0-.21.26-.06.47,0,0,.06.36.37.05l2.46-2.62s.37-.21.42,0c0,0,.15.26-.11.47,0,0-3.62,3.4-3.62,3.62,0,0-.15.37,0,.47,0,0,.06.32.44-.23,0,0,4.36-6.17,11-5.93,0,0,3.1-.24,6.75,1.69,0,0,.47.39.59.12l1.06-4.32s.07-.24-.24-.51c-.32-.28-3.14-3.5-8.13-3.5s-8.05,2.43-9.62,4.75c0,0-.04.33.09.54Z"/>
        <path class="cls-7" d="M216.91,63.27c-.05-.2-.47-.1-.47-.1l-2.15,2.51s-.26.1-.31-.11c0,0-.1-.16.11-.37l2.78-3.09.11-.36s-.16-.41-.43-.05c-.28.35-1.73,2.08-1.73,2.08,0,0-.4.12-.28-.31,0,0,2.16-2.67,2.75-3.18,0,0,.2-.31.04-.39,0,0-.27-.04-.39.12-.12.15-1.69,1.96-1.69,1.96,0,0-.32.24-.32-.04,0,0-.19-.16.13-.43.31-.28,2.98-4.75,8.68-4.79,5.69-.04,9.06,3.14,9.46,3.92,0,0,.08.32-.24.28,0,0-2.12-1.92-2.43-1.85,0,0-.28.27-.08.47,0,0,3.18,2.47,3.22,2.75,0,0,.08.67-.12.47,0,0-1.86-1.84-2.36-2.09,0,0-.2.32-.09.59,0,0,3.07,2.2,3.23,2.71,0,0,.19.51-.12.4,0,0-2.24-2.12-2.82-2.09,0,0-.19.31-.08.43,0,0,3.26,2.32,3.57,2.94,0,0-.08.47-.31.27,0,0-2.16-2.2-2.87-2.28,0,0-.35.24-.11.63,0,0,3.96,2.67,3.96,2.87,0,0,0,.63-.35.36,0,0-3.81-4.71-11.46-4.28,0,0-5.19-.35-10.29,6,0,0-.23-.59.12-.9l3.18-3.14.04-.43s-.12-.2-.36-.04l-2.58,2.75s-.44-.04-.2-.43l3.1-3.26s.29-.12.18-.51Z"/>
        <path class="cls-4" d="M230.51,135.97l-.38,1.33c-.54-.16-1.01-.15-1.43.05-.41.19-.76.58-1.03,1.15-.28.58-.36,1.06-.25,1.45.11.39.31.66.63.81.29.13.57.11.84-.06.19-.12.54-.48,1.03-1.08.67-.81,1.17-1.36,1.51-1.64.33-.27.7-.43,1.09-.48.39-.04.77.02,1.12.2.33.15.6.37.82.65.2.29.34.6.41.95.06.27.05.59-.01.97-.06.39-.18.77-.36,1.16-.27.58-.6,1.06-.98,1.42-.37.36-.75.58-1.13.66-.39.07-.84.04-1.36-.11l.41-1.3c.41.12.78.1,1.13-.07.34-.17.63-.5.86-.99.27-.57.37-1.03.29-1.37-.07-.34-.23-.57-.49-.69-.16-.07-.33-.09-.51-.05-.19.04-.38.15-.56.32-.11.11-.4.43-.85.96-.66.77-1.14,1.3-1.46,1.59-.32.27-.67.45-1.06.52-.38.06-.78,0-1.21-.21-.42-.2-.76-.51-1.01-.92-.26-.42-.38-.91-.36-1.47.02-.55.16-1.12.43-1.7.45-.96,1-1.61,1.64-1.92.64-.32,1.38-.36,2.24-.12Z"/>
        <path class="cls-4" d="M232.39,16.09l4.64,1.5s-1.44,1.39-1.75,2.96c-.31,1.57-4.83,21.04-4.83,21.04,0,0-.76,3.14.37,3.46,1.13.31-5.28-1.7-5.28-1.7,0,0,1.51-.06,2.07-2.45.57-2.39,4.71-20.86,4.71-20.86,0,0,.44-2.07.06-3.95Z"/>
        <polygon class="cls-4" points="229.94 124.88 230.79 123.47 233.05 125.82 242.19 125.96 241.44 127.8 234.7 127.57 239.27 132.7 238.33 134.16 229.94 124.88"/>
      </g>
      <g>
        <g>
          <path class="cls-5" d="M124.46,61.71C124.46,27.18,97.56.16,63.03.16S.05,28.16.05,62.68c0,9.78,2.41,19.12,6.65,27.46l3.9,8.56,16.68,31.15,18.49,30.56,18.5,27.59,16.92-27.28,13.17-23.67,13.64-26.33,9.31-19.24h-.02c4.58-8.93,7.17-19.08,7.17-29.78Z"/>
          <path class="cls-2" d="M38.6,5.02c-7.5,3.16-14.24,7.67-20.05,13.41-5.8,5.76-10.37,12.45-13.56,19.89C1.68,46.05,0,54.24,0,62.68c0,9.55,2.24,18.79,6.66,27.48l3.9,8.56,16.68,31.16,18.5,30.56,18.54,27.66,16.97-27.34,13.16-23.67,13.64-26.34,9.35-19.32h-.02c4.66-9.12,7.13-19.39,7.13-29.72,0-16.72-6.31-32.26-17.79-43.76C95.26,6.44,79.74.11,63.03.11c-8.45,0-16.68,1.65-24.43,4.91ZM45.83,160.38l-18.5-30.56-16.68-31.15-3.9-8.55C2.34,81.45.1,72.21.1,62.68c0-8.42,1.68-16.61,4.98-24.31,3.19-7.43,7.74-14.11,13.54-19.86,5.8-5.73,12.53-10.24,20.02-13.39C46.39,1.86,54.59.22,63.03.22c16.68,0,32.18,6.32,43.62,17.81,11.45,11.47,17.75,26.99,17.75,43.68,0,10.35-2.47,20.63-7.15,29.75l-.05.09h.03c-.09.17-9.28,19.14-9.28,19.14l-13.63,26.33-13.16,23.67s-16.79,27.05-16.88,27.19c-.09-.13-18.45-27.51-18.45-27.51Z"/>
        </g>
        <g>
          <path class="cls-7" d="M77.32,69.19c-1.25-2.42-4.85-3.88-5.21-4.11-.36-.24-.59.08-.59.08l-5.41,8.54-6.69-7.87c-2.08.46-5.02,4.54-5.02,4.54l.35-3.41-1.6-.86-5.57,8.82-.3-.37-5.63-7.16-.32-.42c-3.8,1.3-5.37,4.96-5.37,4.96l22.36,28.37,18.97-30.25c.26-.35.03-.86.03-.86ZM61.06,81.23c-.36.73-3.61,6.01-3.61,6.01,0,0-.15.74-.73,0-.57-.73-4.59-5.75-4.59-5.75,0,0-.32-.16.1-.83.43-.68,3.77-5.9,3.77-5.9,0,0,.42-.47.78,0,.37.47,4.34,5.59,4.34,5.59,0,0,.32.16-.05.89Z"/>
          <path class="cls-7" d="M39.12,96.23l-5.16,1.49s-.71.39-.17-.48c.56-.86,9.25-14.97,9.25-14.97,0,0,1.02.16.71.71-.32.55-.94,1.41-.94,1.41,0,0,.16.55.63.51l.86-1.41s1.14.28.63,1.06c-.51.78-.98,1.41-.98,1.41,0,0-.03.39.36.39l.95-1.45s1.02.2.74.86l-1.1,1.49s.08.55.47.47l1.01-1.37s1.02.16.48.86l-.94,1.3s.08.63.59.51l.9-1.37s.98.04.63,1.09l-8.1,12.81-.79-5.33Z"/>
          <path class="cls-7" d="M77.13,94.24l5.3.94s.74.32.1-.48c-.63-.8-10.75-13.93-10.75-13.93,0,0-1,.26-.63.78.36.51,1.08,1.31,1.08,1.31,0,0-.1.56-.57.57l-1-1.31s-1.1.39-.52,1.11c.58.73,1.13,1.3,1.13,1.3,0,0,.07.39-.31.43l-1.1-1.35s-.99.3-.65.93l1.26,1.36s-.03.56-.43.52l-1.16-1.26s-1,.26-.38.91l1.07,1.19s-.01.63-.53.57l-1.03-1.27s-.98.14-.52,1.16l9.39,11.9.23-5.38Z"/>
          <path class="cls-7" d="M38.1,63.11l2.04-2.19s.37-.16.37.05,0,.47-.27.68c-.26.21-2.66,2.72-2.66,2.72,0,0-.16.16-.05.36.1.21.16.21.31.05,0,0,1.62-1.93,1.78-1.99,0,0,.37-.26.47,0,0,0,.1.32-.16.53l-2.82,2.87s-.26.16-.05.37c.2.21.47.05.47.05l1.93-2.04s.16-.37.31-.05c0,0,.26,0-.16.42-.41.41-2.93,3.08-2.93,3.08,0,0-.21.26-.05.47,0,0,.05.37.37.05l2.45-2.61s.36-.2.42,0c0,0,.16.26-.1.47,0,0-3.6,3.39-3.6,3.6,0,0-.16.36,0,.47,0,0,.05.32.44-.23,0,0,4.36-6.15,10.97-5.91,0,0,3.1-.24,6.74,1.68,0,0,.47.39.59.12l1.06-4.31s.07-.23-.24-.51c-.31-.27-3.14-3.49-8.11-3.49s-8.03,2.43-9.61,4.74c0,0-.04.33.08.54Z"/>
          <path class="cls-7" d="M58.26,63.32c-.05-.2-.47-.11-.47-.11l-2.13,2.51s-.26.11-.32-.1c0,0-.1-.16.11-.37l2.76-3.08.1-.36s-.15-.41-.43-.06c-.27.36-1.72,2.08-1.72,2.08,0,0-.4.12-.27-.32,0,0,2.15-2.66,2.74-3.18,0,0,.2-.31.04-.39,0,0-.28-.04-.4.12-.11.16-1.68,1.96-1.68,1.96,0,0-.32.24-.32-.04,0,0-.19-.15.12-.43.31-.27,2.98-4.74,8.66-4.78,5.69-.04,9.06,3.13,9.45,3.92,0,0,.08.31-.24.28,0,0-2.11-1.92-2.42-1.84,0,0-.28.27-.08.47,0,0,3.17,2.47,3.21,2.74,0,0,.08.67-.11.47,0,0-1.84-1.84-2.35-2.07,0,0-.19.31-.07.59,0,0,3.06,2.19,3.21,2.7,0,0,.2.51-.12.39,0,0-2.23-2.12-2.82-2.08,0,0-.2.31-.07.43,0,0,3.25,2.31,3.56,2.94,0,0-.08.47-.31.27,0,0-2.16-2.19-2.87-2.27,0,0-.35.24-.11.63,0,0,3.96,2.66,3.96,2.86,0,0,0,.63-.35.36,0,0-3.81-4.7-11.45-4.28,0,0-5.17-.35-10.26,6,0,0-.24-.59.12-.91l3.17-3.13.04-.43s-.11-.2-.35-.04l-2.59,2.74s-.43-.04-.2-.43l3.1-3.25s.29-.12.18-.51Z"/>
        </g>
        <path class="cls-6" d="M61.94,19.14s0-.51.59-.51.51.47.51.47v4.39l-3.34,3.96s-.47.59-.47.98v12.19s.47,1.88,2.04,2.23c0,0,1.51.39,2.04-.66v.62h3.29v-23.71s.55-4.78-3.8-4.78-4.16,4.81-4.16,4.81v2.86l3.29.98.02-.22v-3.45"/>
        <path class="cls-4" d="M63.09,29.14l.03,11.01s-.97-.33-.97-1.02v-8.62s.2-.89.94-1.36Z"/>
        <path class="cls-6" d="M80.5,47.99l.95-.11,15.56-22.78-.31-1.15,4.9,3.34s1.27,1.57.32,3.14c-.94,1.56-13.38,19.54-13.38,19.54,0,0-2.09,1.78-3.76.84-1.67-.94-4.29-2.82-4.29-2.82Z"/>
        <path class="cls-4" d="M85.1,47.79l13.38-19.54s.62.84.42,1.25c-.21.42-12.64,18.5-12.64,18.5,0,0-.42.42-1.15-.21Z"/>
        <path class="cls-6" d="M100.8,53.14l-2.65-1.16s-.63-.16-1.2.31c-.57.47-6.32,4.7-6.49,5.22-.14.53-.52,2.25.74,3.5,1.24,1.26,2.5,1.93,4.01,1.1,1.51-.83,9.3-5.43,10.24-7.47.94-2.04.67-4.43,1.61-5.17.94-.73,5.52-4.08,5.52-4.08,0,0,.54-.31.8,0,.26.31.16.53,0,.68-.15.16-5.28,3.76-5.28,3.76,0,0-.41.31-.05.58.37.25,2.1,1.29,2.1,1.29,0,0,.11.21.68-.16.57-.37,5.22-4.02,5.22-4.02,0,0,1.42-1.68-.67-3.81-2.09-2.14-5.43-.73-5.43-.73,0,0-6.58,4.43-6.89,6.11-.32,1.67-.27,3.55-.94,4.12-.68.58-8.31,6.32-8.31,6.32,0,0-.58.22-.85-.15-.26-.37.32-.78.32-.78l7.52-5.48Z"/>
        <path class="cls-6" d="M95.33,67.1l9.76.23-.03,1.48-1.37-.03c.46.32.84.73,1.12,1.25.28.52.41,1.1.4,1.75-.02.72-.18,1.31-.49,1.77-.31.45-.73.77-1.29.95,1.13.79,1.67,1.82,1.64,3.05-.02.97-.31,1.71-.85,2.21-.55.51-1.38.75-2.49.72l-6.69-.16.04-1.64,6.15.15c.66.02,1.14-.02,1.43-.13.29-.1.53-.29.72-.57.18-.28.28-.6.29-.99.02-.68-.19-1.26-.65-1.72-.44-.46-1.17-.71-2.17-.73l-5.66-.13.04-1.66,6.33.15c.73.02,1.29-.1,1.67-.37.37-.26.57-.7.58-1.31.02-.47-.1-.9-.33-1.3-.24-.4-.59-.69-1.06-.88-.47-.19-1.15-.29-2.04-.32l-5.06-.12.03-1.65Z"/>
        <path class="cls-6" d="M77.36,149.62l1.23.62-.53,1.06-1.23-.62.53-1.07ZM69.93,145.88l6.27,3.16-.53,1.06-6.27-3.16.54-1.06Z"/>
        <path class="cls-6" d="M101.21,107.2l-12.85-4.36.54-1.57,12.84,4.35-.53,1.58Z"/>
        <path class="cls-6" d="M96.09,93.27c-.65-.16-1.12-.37-1.41-.61-.38-.32-.64-.74-.78-1.24-.13-.51-.13-1.05.02-1.62.14-.57.39-.98.73-1.21.34-.23.71-.29,1.1-.19.25.06.47.19.64.38.18.19.29.43.33.71.05.28.03.74-.03,1.37-.12,1.11-.14,1.96-.07,2.55l-.54-.14ZM92.34,92.49l-.36,1.5c.38-.1.67.1,1.04.14.38.03,1.14.23,2.51.58l1.97.51c.66.17,1.12.26,1.38.28.43.02.8-.05,1.12-.2.33-.15.63-.44.93-.85.29-.42.53-1.01.73-1.75.19-.75.26-1.43.19-2.05-.05-.62-.23-1.13-.53-1.54-.3-.39-.75-.74-1.34-1.03l-.56,1.4c.58.32.95.67,1.11,1.07.15.39.15.94-.04,1.63-.19.74-.5,1.26-.93,1.55-.32.22-.78.24-1.38.09-.05-.01-.18-.05-.38-.11-.05-.61,0-1.53.17-2.76.07-.6.12-1.06.11-1.37,0-.42-.08-.82-.2-1.19-.14-.37-.36-.7-.66-.98-.31-.29-.67-.48-1.09-.59-.74-.19-1.39-.08-1.99.31-.6.39-1.03,1.07-1.27,2.03-.14.57-.19,1.15-.13,1.7.06.56.25,1.16.58,1.83-.43-.06-.62-.26-.97-.19Z"/>
        <path class="cls-6" d="M87.14,117.45c-.63-.25-1.07-.53-1.32-.81-.33-.38-.53-.81-.59-1.34-.07-.51.02-1.05.24-1.59.23-.55.53-.92.89-1.09.36-.18.74-.19,1.11-.04.25.1.44.26.59.47.14.21.22.47.22.75,0,.28-.06.73-.22,1.34-.28,1.08-.42,1.93-.42,2.53l-.51-.21ZM83.53,116.15l-.57,1.44c.39-.05.65.19,1.02.27.37.09,1.08.39,2.41.93l1.87.78c.62.26,1.07.42,1.33.47.42.07.8.06,1.14-.04.35-.1.68-.34,1.04-.71.35-.37.67-.92.97-1.63.3-.71.46-1.38.49-2.01.03-.62-.08-1.15-.32-1.59-.24-.44-.63-.84-1.17-1.21l-.77,1.3c.54.39.85.8.96,1.21.09.4,0,.95-.27,1.61-.29.71-.67,1.18-1.14,1.41-.35.16-.81.13-1.39-.11-.05-.02-.16-.07-.36-.16.04-.62.22-1.52.56-2.72.16-.59.26-1.03.31-1.34.05-.42.03-.82-.04-1.2-.08-.38-.25-.74-.51-1.07-.26-.32-.59-.57-1.01-.74-.68-.29-1.36-.28-2,.03-.65.3-1.16.92-1.54,1.83-.23.55-.36,1.11-.37,1.66-.02.56.09,1.19.31,1.9-.41-.12-.57-.34-.93-.32Z"/>
        <path class="cls-6" d="M66.89,157.46c-.43-.27-.73-.53-.88-.78-.2-.32-.29-.68-.27-1.08.03-.4.15-.79.39-1.17.24-.38.52-.62.82-.71.3-.09.58-.05.84.12.17.11.3.25.38.43.08.18.11.37.07.59-.03.21-.15.54-.35.98-.34.78-.57,1.4-.64,1.85l-.36-.23ZM64.35,156.02l-.61,1.01c.3.02.45.23.72.34.27.11.77.44,1.69,1.02l1.31.83c.44.28.75.45.93.52.32.11.6.16.87.12.27-.04.56-.17.87-.4.32-.24.63-.6.94-1.1.32-.5.53-.99.63-1.45.11-.47.09-.88-.04-1.24-.12-.35-.36-.71-.72-1.06l-.74.88c.34.36.53.71.55,1.03.03.33-.11.72-.41,1.18-.32.5-.66.8-1.05.91-.28.08-.62,0-1.01-.25-.05-.02-.13-.08-.26-.16.11-.47.36-1.12.77-1.98.2-.42.33-.74.4-.96.09-.31.13-.61.13-.91-.01-.3-.09-.59-.25-.87-.16-.28-.38-.5-.65-.68-.49-.32-1-.39-1.52-.25-.52.15-1,.54-1.41,1.17-.24.39-.4.79-.49,1.21-.09.42-.09.91,0,1.47-.3-.15-.39-.33-.66-.36Z"/>
        <path class="cls-6" d="M77.03,135.86l-.4,1.34c-.52-.17-1-.15-1.41.04-.42.2-.76.58-1.03,1.15-.27.58-.36,1.06-.26,1.45.11.4.32.66.64.81.28.13.56.12.84-.05.2-.12.54-.49,1.03-1.08.67-.81,1.17-1.36,1.52-1.63.33-.28.69-.43,1.08-.47.39-.05.76.02,1.12.19.33.15.6.37.81.65.22.28.35.6.42.95.05.26.05.59-.01.97-.05.39-.18.77-.37,1.16-.27.58-.6,1.05-.96,1.41-.38.35-.76.58-1.15.65-.38.07-.83.04-1.35-.1l.42-1.31c.4.13.78.11,1.12-.06.34-.17.63-.49.86-.98.27-.58.37-1.03.29-1.37-.08-.33-.24-.56-.5-.68-.16-.07-.33-.1-.51-.05-.19.04-.38.15-.57.33-.11.1-.39.43-.84.95-.65.77-1.14,1.3-1.46,1.58-.32.29-.67.46-1.05.52-.38.07-.79,0-1.21-.21-.42-.19-.75-.5-1.01-.92-.26-.42-.38-.91-.37-1.47.02-.55.16-1.12.44-1.71.45-.96,1-1.59,1.63-1.91.64-.32,1.38-.36,2.24-.13Z"/>
        <path class="cls-6" d="M78.9,16.22l4.64,1.51s-1.44,1.38-1.76,2.95c-.31,1.56-4.83,21-4.83,21,0,0-.74,3.13.38,3.45,1.12.32-5.27-1.69-5.27-1.69,0,0,1.5-.06,2.07-2.45.57-2.38,4.7-20.81,4.7-20.81,0,0,.44-2.07.06-3.95Z"/>
        <polygon class="cls-6" points="76.46 124.8 77.31 123.39 79.57 125.74 88.69 125.89 87.94 127.71 81.22 127.48 85.77 132.6 84.83 134.06 76.46 124.8"/>
        <path class="cls-6" d="M15.38,84.4l9.24.81.35,1.07-2.83-.3-4.87,4.2-.35-1.08,3.8-3.26-4.99-.4-.34-1.05Z"/>
        <path class="cls-6" d="M18.95,72.18l.18,1.1-.69.12c.08.09.19.21.34.35.15.15.26.29.37.44.12.17.24.37.34.6.11.23.18.51.24.83.1.6-.02,1.13-.34,1.61-.32.48-.79.77-1.41.88-.5.08-.92.04-1.26-.12-.35-.16-.64-.43-.89-.79-.23-.37-.45-.84-.6-1.39-.15-.56-.3-1.15-.44-1.79l-.17.03c-.26.04-.45.12-.61.24-.15.12-.25.26-.32.44-.07.18-.09.38-.09.6,0,.23.03.46.07.7.05.3.14.61.27.96.14.34.32.69.52,1.06v.06s-1.11.19-1.11.19c-.1-.2-.22-.51-.35-.9-.15-.4-.25-.8-.31-1.2-.09-.46-.11-.87-.1-1.23.02-.36.11-.68.25-.96.13-.28.34-.51.61-.69.26-.18.62-.3,1.03-.37l4.49-.76ZM17.5,73.56l-1.83.31c.08.33.17.73.29,1.18.12.45.24.81.36,1.06.15.3.33.54.55.7.23.16.51.22.84.16.38-.07.64-.22.8-.49.15-.26.19-.63.11-1.09-.06-.39-.2-.73-.41-1.03-.2-.3-.44-.57-.71-.8Z"/>
        <path class="cls-6" d="M10.13,58.75l10.97,4.39.03,1.43-3.35-1.4-7.48,3.33-.03-1.45,5.83-2.57-5.93-2.32-.03-1.4Z"/>
        <path class="cls-6" d="M20.15,47.05l-.29,1.4-.88-.18c.06.14.14.33.25.57.12.25.19.48.24.7.07.26.11.54.12.87.02.32-.02.68-.1,1.09-.16.75-.53,1.34-1.14,1.76-.6.43-1.3.56-2.07.4-.63-.13-1.12-.37-1.45-.72-.33-.35-.57-.8-.68-1.35-.12-.56-.15-1.2-.09-1.92.06-.73.16-1.5.29-2.33l-.22-.04c-.31-.06-.59-.06-.82,0-.23.07-.43.19-.59.38-.15.18-.28.4-.38.67-.1.27-.17.56-.24.86-.07.37-.11.79-.11,1.27.01.47.05.97.14,1.49l-.02.07-1.43-.29c0-.29-.02-.7,0-1.24.01-.53.06-1.05.18-1.56.11-.59.27-1.09.45-1.51.19-.41.43-.76.73-1.03.3-.27.64-.45,1.04-.54.4-.09.87-.08,1.4.03l5.67,1.15ZM17.81,48.04l-2.33-.47c-.06.44-.12.94-.19,1.54-.06.59-.08,1.07-.06,1.43.03.42.14.79.33,1.09.19.3.49.48.92.57.48.1.87.03,1.17-.21.31-.24.52-.65.64-1.25.09-.5.09-.96-.02-1.41-.11-.45-.27-.88-.46-1.27Z"/>
        <path class="cls-6" d="M23.44,34.56c.57-.1,1.14.05,1.7.43.71.48,1.09,1.18,1.15,2.07.05.9-.27,1.85-.96,2.87-.39.58-.82,1.06-1.28,1.45-.46.39-.89.69-1.27.9l-1.47-1,.04-.07c.6-.2,1.16-.49,1.68-.87.52-.38.95-.8,1.28-1.26.39-.58.6-1.09.63-1.54.04-.46-.15-.82-.54-1.09-.31-.21-.61-.28-.89-.21-.26.07-.64.32-1.09.74-.17.16-.38.37-.65.63-.25.26-.5.49-.74.7-.64.56-1.24.86-1.79.91-.53.05-1.07-.1-1.58-.45-.32-.22-.58-.5-.76-.82-.19-.33-.31-.7-.35-1.12-.04-.41.01-.86.16-1.35.14-.49.39-.98.72-1.48.32-.46.69-.9,1.13-1.29.44-.4.84-.7,1.22-.9l1.4.95-.05.07c-.48.17-.96.43-1.45.79-.5.36-.9.77-1.21,1.23-.33.48-.52.95-.55,1.4-.03.46.12.81.48,1.05.32.22.63.28.93.2.29-.09.64-.32,1.04-.68.22-.2.46-.43.72-.69.26-.27.47-.48.66-.65.55-.51,1.11-.82,1.68-.92h0Z"/>
        <path class="cls-6" d="M38.21,28.67l-1.4.9-.57-.89c-.06.16-.16.39-.28.68-.12.29-.24.54-.39.75-.15.27-.36.53-.62.81-.26.27-.58.54-.99.81-.76.48-1.55.64-2.4.48-.83-.16-1.5-.62-2-1.4-.41-.63-.6-1.23-.58-1.79.01-.56.2-1.12.57-1.67.36-.55.88-1.09,1.53-1.63.67-.54,1.39-1.09,2.17-1.65l-.13-.22c-.21-.32-.43-.55-.68-.69-.25-.14-.51-.19-.8-.18-.27.01-.57.09-.87.23-.3.14-.61.31-.91.5-.36.24-.74.55-1.14.94-.39.39-.76.83-1.13,1.32l-.07.05-.92-1.42c.23-.25.57-.59,1.03-1.01.46-.43.94-.79,1.44-1.12.59-.38,1.13-.66,1.63-.84.5-.18.97-.26,1.45-.23.46.03.89.17,1.28.43.41.25.78.65,1.12,1.19l3.65,5.65ZM35.5,27.52l-1.5-2.32c-.41.3-.89.66-1.44,1.08-.55.42-.96.79-1.23,1.1-.34.38-.54.76-.64,1.16-.1.4,0,.81.26,1.23.32.48.69.75,1.14.8.44.06.96-.11,1.54-.48.49-.32.89-.71,1.17-1.16.29-.45.52-.93.7-1.42Z"/>
        <path class="cls-6" d="M54.14,25.85l-1.76.16-.52-5.97c-.04-.48-.12-.93-.2-1.34-.09-.42-.23-.74-.39-.96-.18-.25-.43-.43-.73-.53-.3-.1-.69-.13-1.17-.09-.48.04-.98.2-1.47.49-.51.29-.99.63-1.43,1.04l.68,7.82-1.76.16-.92-10.48,1.77-.15.1,1.16c.52-.51,1.05-.91,1.62-1.22.57-.31,1.16-.48,1.78-.54,1.13-.1,2.03.16,2.68.79.66.63,1.04,1.58,1.16,2.87l.59,6.8Z"/>
      </g>
    </g>
  </g>
</svg>